<?xml version="1.0" encoding="utf-8"?>
<!-- Generator: Adobe Illustrator 19.0.0, SVG Export Plug-In . SVG Version: 6.00 Build 0)  -->
<svg version="1.1" id="katman_1" xmlns="http://www.w3.org/2000/svg" xmlns:xlink="http://www.w3.org/1999/xlink" x="0px" y="0px"
	 viewBox="-15 17 127 48" style="enable-background:new -15 17 127 48;" xml:space="preserve">
<style type="text/css">
	.st0{fill:#FFFFFF;}
	.st1{fill:#B9D4F8;}
	.st2{fill:#659BDB;}
	.st3{fill:none;stroke:#1B4A9A;stroke-width:0.7;stroke-linecap:round;stroke-linejoin:round;stroke-miterlimit:10;}
	.st4{fill:#172A3D;}
	.st5{font-family:'Lato-Black';}
	.st6{font-size:12px;}
</style>
<g id="Padding__x26__Artboard">
</g>
<g id="Icons">
	<g>
		<circle class="st0" cx="9" cy="35.5" r="4.8"/>
		<path class="st0" d="M19.1,51.4H-1.1c0-5.6,4.5-10.1,10.1-10.1C14.6,41.3,19.1,45.8,19.1,51.4z"/>
		<path class="st1" d="M19.1,51.4H0.7c0-5.2,4.1-9.5,9.2-9.5C15,41.9,19.1,46.2,19.1,51.4z"/>
		<circle class="st1" cx="9.4" cy="36.2" r="4"/>
		<circle class="st2" cx="10.1" cy="37" r="3.1"/>
		<path class="st2" d="M19.1,51.4H3.8c0-4.3,3.4-7.9,7.7-7.9C15.6,43.5,19.1,47,19.1,51.4z"/>
		<circle class="st3" cx="9" cy="35.5" r="4.8"/>
		<path class="st3" d="M6.9,33.2c0.6-0.5,1.3-0.8,2.1-0.8"/>
		<path class="st3" d="M5.9,34.9c0-0.2,0.1-0.5,0.2-0.7"/>
		<path class="st3" d="M19.1,51.4H-1.1c0-5.6,4.5-10.1,10.1-10.1C14.6,41.3,19.1,45.8,19.1,51.4z"/>
	</g>
</g>
<text transform="matrix(1 0 0 1 35.333 46.6445)" class="st4 st5 st6">Vue Thumb</text>
</svg>
