<?xml version="1.0" ?><svg style="enable-background:new 0 0 48 48;" version="1.1" viewBox="0 0 48 48" xml:space="preserve" xmlns="http://www.w3.org/2000/svg" xmlns:xlink="http://www.w3.org/1999/xlink"><g id="Padding__x26__Artboard"/><g id="Icons"><g><circle cx="23.99802" cy="18.4519" r="4.82225" style="fill:#FFFFFF;"/><path d="M34.08141,34.37035H13.91859c0-5.56414,4.50904-10.08138,10.08143-10.08138    C29.56416,24.28897,34.08141,28.80621,34.08141,34.37035z" style="fill:#FFFFFF;"/><path d="M34.08141,34.37035H15.67742c0-5.21664,4.11571-9.45176,9.20202-9.45176    C29.95821,24.91858,34.08141,29.15371,34.08141,34.37035z" style="fill:#B9D4F8;"/><circle cx="24.3747" cy="19.20362" r="3.95982" style="fill:#B9D4F8;"/><circle cx="25.14402" cy="19.95211" r="3.0655" style="fill:#659BDB;"/><path d="M34.08141,34.37035h-15.321c0-4.34276,3.42626-7.86843,7.66052-7.86843    C30.64891,26.50192,34.08141,30.02759,34.08141,34.37035z" style="fill:#659BDB;"/><circle cx="23.99801" cy="18.4519" r="4.82225" style="fill:none;stroke:#1B4A9A;stroke-width:0.7;stroke-linecap:round;stroke-linejoin:round;stroke-miterlimit:10;"/><path d="    M21.91037,16.22593c0.55367-0.50036,1.28754-0.80506,2.09257-0.80506" style="fill:none;stroke:#1B4A9A;stroke-width:0.7;stroke-linecap:round;stroke-linejoin:round;stroke-miterlimit:10;"/><path d="    M20.94428,17.91404c0.04761-0.23281,0.12114-0.45619,0.21743-0.66698" style="fill:none;stroke:#1B4A9A;stroke-width:0.7;stroke-linecap:round;stroke-linejoin:round;stroke-miterlimit:10;"/><path d="    M34.08139,34.37035h-20.1628c0-5.56414,4.50904-10.08138,10.08142-10.08138    C29.56415,24.28897,34.08139,28.80621,34.08139,34.37035z" style="fill:none;stroke:#1B4A9A;stroke-width:0.7;stroke-linecap:round;stroke-linejoin:round;stroke-miterlimit:10;"/></g></g></svg>